<svg width="50" height="50" viewBox="0 0 50 50" fill="none" xmlns="http://www.w3.org/2000/svg">
<g clip-path="url(#clip0)">
<path d="M25.0006 50C11.2157 50 0.000976562 38.7848 0.000976562 24.9996C0.000976563 11.2148 11.2157 0 25.0006 0C38.7854 0 50.0002 11.2148 50.0002 24.9996C50.0002 38.7848 38.7854 50 25.0006 50ZM25.0006 2.46569C12.5756 2.46569 2.46666 12.5746 2.46666 24.9996C2.46666 37.425 12.5756 47.5343 25.0006 47.5343C37.4256 47.5343 47.5345 37.425 47.5345 24.9996C47.5345 12.5746 37.4256 2.46569 25.0006 2.46569Z" fill="black"/>
<path d="M24.9182 41.2735C20.7919 41.2735 17.4353 38.2814 17.4353 34.6034H19.901C19.901 36.922 22.1517 38.8078 24.9182 38.8078C27.6843 38.8078 29.9347 36.9215 29.9347 34.6034H32.4004C32.4004 38.281 29.0437 41.2735 24.9182 41.2735Z" fill="black"/>
<path d="M19.0607 27.2121H16.595C16.595 24.9778 15.0757 23.1601 13.2079 23.1601C11.3402 23.1601 9.82091 24.9778 9.82091 27.2121H7.35522C7.35522 23.6179 9.98077 20.6945 13.2079 20.6945C16.4351 20.6945 19.0607 23.6179 19.0607 27.2121Z" fill="black"/>
<path d="M42.6444 27.2121H40.1787C40.1787 24.9778 38.6594 23.1601 36.7917 23.1601C34.9239 23.1601 33.4047 24.9778 33.4047 27.2121H30.939C30.939 23.6179 33.5645 20.6945 36.7917 20.6945C40.0189 20.6945 42.6444 23.6179 42.6444 27.2121Z" fill="black"/>
</g>
<defs>
<clipPath id="clip0">
<rect width="50" height="50" fill="white"/>
</clipPath>
</defs>
</svg>
